<?xml version="1.0" encoding="UTF-8"?>
<svg xmlns="http://www.w3.org/2000/svg" width="400" height="400" viewBox="0 0 400 400">
<g stroke="#1a1a1a" stroke-width="1.5" fill="none" stroke-linecap="round" stroke-linejoin="round">
<path d="M200 400 Q196 348 200 290 Q204 232 196 165 Q192 118 200 70"/>
<path d="M200 380 Q185 370 176 374"/>
<path d="M200 365 Q215 355 224 359"/>
<path d="M200 348 Q184 338 175 342"/>
<path d="M200 333 Q216 323 225 327"/>
<path d="M200 316 Q183 306 174 310"/>
<path d="M200 301 Q217 291 226 295"/>
<path d="M200 282 Q184 272 175 276"/>
<path d="M200 267 Q216 257 225 261"/>
<path d="M200 248 Q183 240 174 244"/>
<path d="M200 235 Q217 225 226 229"/>
<path d="M200 215 Q184 207 175 211"/>
<path d="M200 202 Q216 192 225 196"/>
<path d="M200 183 Q185 175 176 179"/>
<path d="M200 169 Q215 162 224 166"/>
<path d="M200 150 Q186 142 178 146"/>
<path d="M200 137 Q214 130 222 134"/>
<path d="M200 118 Q187 110 180 114"/>
<path d="M200 105 Q213 98 220 102"/>
<path d="M200 86 Q188 78 182 82"/>
<path d="M200 74 Q212 68 218 72"/>
</g></svg>
