<?xml version="1.0" encoding="UTF-8"?>
<svg xmlns="http://www.w3.org/2000/svg" width="400" height="400" viewBox="0 0 400 400">
<g stroke="#1a1a1a" stroke-width="1.5" fill="none" stroke-linecap="round" stroke-linejoin="round">
<path d="M180 400 Q175 350 178 295 Q182 240 176 180 Q170 120 178 60"/>
<path d="M220 400 Q218 352 222 300 Q226 248 220 192 Q214 136 222 80"/>
<line x1="179" y1="100" x2="179" y2="100" stroke-width="6"/>
<line x1="177" y1="160" x2="177" y2="160" stroke-width="6"/>
<line x1="177" y1="222" x2="177" y2="222" stroke-width="6"/>
<line x1="178" y1="284" x2="178" y2="284" stroke-width="6"/>
<line x1="179" y1="345" x2="179" y2="345" stroke-width="6"/>
<line x1="221" y1="120" x2="221" y2="120" stroke-width="5"/>
<line x1="221" y1="182" x2="221" y2="182" stroke-width="5"/>
<line x1="221" y1="242" x2="221" y2="242" stroke-width="5"/>
<line x1="221" y1="304" x2="221" y2="304" stroke-width="5"/>
<line x1="221" y1="362" x2="221" y2="362" stroke-width="5"/>
<path d="M179 100 Q148 88 122 72 Q108 56 112 40"/>
<path d="M177 162 Q205 148 228 134 Q244 118 240 102"/>
<path d="M177 224 Q145 210 118 194 Q104 178 108 162"/>
<path d="M221 120 Q250 108 274 94 Q288 78 284 62"/>
<path d="M221 182 Q190 168 164 152 Q150 136 154 120"/>
<path d="M221 244 Q250 230 274 216 Q288 200 284 184"/>
<path d="M112 40 Q106 26 112 14"/>
<path d="M284 62 Q290 48 284 36"/>
<path d="M108 162 Q102 148 108 136"/>
</g></svg>
