<?xml version="1.0" encoding="UTF-8"?>
<svg xmlns="http://www.w3.org/2000/svg" width="400" height="400" viewBox="0 0 400 400">
<g stroke="#1a1a1a" stroke-width="1.5" fill="none" stroke-linecap="round" stroke-linejoin="round">
<line x1="120" y1="400" x2="120" y2="30" stroke-width="6"/>
<line x1="160" y1="400" x2="160" y2="55" stroke-width="5"/>
<line x1="200" y1="400" x2="200" y2="80" stroke-width="5"/>
<line x1="240" y1="400" x2="240" y2="100" stroke-width="4"/>
<line x1="275" y1="400" x2="275" y2="130" stroke-width="4"/>
<line x1="120" y1="85" x2="120" y2="85" stroke-width="8"/><line x1="120" y1="148" x2="120" y2="148" stroke-width="8"/>
<line x1="120" y1="210" x2="120" y2="210" stroke-width="8"/><line x1="120" y1="272" x2="120" y2="272" stroke-width="8"/>
<line x1="120" y1="334" x2="120" y2="334" stroke-width="8"/>
<line x1="160" y1="108" x2="160" y2="108" stroke-width="6"/><line x1="160" y1="170" x2="160" y2="170" stroke-width="6"/>
<line x1="160" y1="232" x2="160" y2="232" stroke-width="6"/><line x1="160" y1="295" x2="160" y2="295" stroke-width="6"/>
<line x1="160" y1="356" x2="160" y2="356" stroke-width="6"/>
<line x1="200" y1="130" x2="200" y2="130" stroke-width="6"/><line x1="200" y1="192" x2="200" y2="192" stroke-width="6"/>
<line x1="200" y1="254" x2="200" y2="254" stroke-width="6"/><line x1="200" y1="316" x2="200" y2="316" stroke-width="6"/>
<line x1="200" y1="370" x2="200" y2="370" stroke-width="6"/>
<path d="M120 85 Q95 72 72 58 Q58 42 62 26"/>
<path d="M120 148 Q148 134 170 120 Q184 104 180 88"/>
<path d="M160 108 Q132 94 108 80"/>
<path d="M160 170 Q188 156 210 142"/>
<path d="M200 130 Q225 116 248 103"/>
<path d="M200 192 Q172 178 148 164"/>
<path d="M240 155 Q265 142 286 128"/>
<path d="M240 218 Q213 205 190 192"/>
<path d="M275 180 Q298 168 318 154"/>
<path d="M62 26 Q55 12 60 2"/>
<path d="M180 88 Q186 74 180 62"/>
<path d="M248 103 Q262 90 258 76"/>
</g></svg>
