<?xml version="1.0" encoding="UTF-8"?>
<svg xmlns="http://www.w3.org/2000/svg" width="400" height="400" viewBox="0 0 400 400">
<g stroke="#1a1a1a" stroke-width="1.5" fill="none" stroke-linecap="round" stroke-linejoin="round">
<line x1="155" y1="400" x2="155" y2="20" stroke-width="5" stroke-linecap="round"/>
<line x1="200" y1="400" x2="200" y2="40" stroke-width="5" stroke-linecap="round"/>
<line x1="245" y1="400" x2="245" y2="60" stroke-width="4" stroke-linecap="round"/>
<line x1="155" y1="80" x2="155" y2="80" stroke-width="6"/>
<line x1="155" y1="140" x2="155" y2="140" stroke-width="6"/>
<line x1="155" y1="200" x2="155" y2="200" stroke-width="6"/>
<line x1="155" y1="260" x2="155" y2="260" stroke-width="6"/>
<line x1="155" y1="320" x2="155" y2="320" stroke-width="6"/>
<line x1="155" y1="375" x2="155" y2="375" stroke-width="6"/>
<line x1="200" y1="100" x2="200" y2="100" stroke-width="6"/>
<line x1="200" y1="165" x2="200" y2="165" stroke-width="6"/>
<line x1="200" y1="230" x2="200" y2="230" stroke-width="6"/>
<line x1="200" y1="295" x2="200" y2="295" stroke-width="6"/>
<line x1="200" y1="355" x2="200" y2="355" stroke-width="6"/>
<line x1="245" y1="120" x2="245" y2="120" stroke-width="5"/>
<line x1="245" y1="185" x2="245" y2="185" stroke-width="5"/>
<line x1="245" y1="248" x2="245" y2="248" stroke-width="5"/>
<line x1="245" y1="310" x2="245" y2="310" stroke-width="5"/>
<line x1="245" y1="365" x2="245" y2="365" stroke-width="5"/>
<path d="M155 80 Q125 70 100 55"/>
<path d="M155 140 Q185 130 210 118"/>
<path d="M155 200 Q120 188 96 172"/>
<path d="M200 100 Q225 85 250 72"/>
<path d="M200 165 Q170 150 148 135"/>
<path d="M245 120 Q275 108 298 94"/>
<path d="M245 185 Q215 170 192 155"/>
<path d="M100 55 Q88 42 82 30"/>
<path d="M96 172 Q82 158 76 144"/>
<path d="M250 72 Q264 58 268 44"/>
<path d="M298 94 Q312 80 316 65"/>
</g></svg>
