<?xml version="1.0" encoding="UTF-8"?>
<svg xmlns="http://www.w3.org/2000/svg" width="400" height="400" viewBox="0 0 400 400">
<g stroke="#1a1a1a" stroke-width="1.5" fill="none" stroke-linecap="round" stroke-linejoin="round">
<path d="M200 400 Q196 370 200 340"/>
<path d="M200 340 Q175 315 155 295"/>
<path d="M200 340 Q225 315 245 295"/>
<path d="M200 340 Q196 310 200 280"/>
<path d="M148 288 Q132 265 136 244 Q150 238 156 254 Q138 238 152 228 Q164 242 158 262 Q160 240 176 234 Q182 250 172 268"/>
<path d="M252 288 Q268 265 264 244 Q250 238 244 254 Q262 238 248 228 Q236 242 242 262 Q240 240 224 234 Q218 250 228 268"/>
<path d="M200 280 Q184 262 180 244 Q192 234 200 244 Q208 234 220 244 Q216 262 200 280Z"/>
<ellipse cx="200" cy="234" rx="10" ry="6"/>
<line x1="200" y1="228" x2="200" y2="212"/>
<circle cx="200" cy="210" r="4"/>
<circle cx="194" cy="214" r="3"/>
<circle cx="206" cy="214" r="3"/>
<path d="M155 295 Q138 278 140 260"/>
<path d="M245 295 Q262 278 260 260"/>
<path d="M132 255 Q124 238 130 222 Q140 218 144 230"/>
<path d="M268 255 Q276 238 270 222 Q260 218 256 230"/>
</g></svg>
