<?xml version="1.0" encoding="UTF-8"?>
<svg xmlns="http://www.w3.org/2000/svg" width="400" height="400" viewBox="0 0 400 400">
<g stroke="#1a1a1a" stroke-width="1.5" fill="none" stroke-linecap="round" stroke-linejoin="round">
<path d="M140 380 Q160 340 170 300 Q178 270 190 250"/>
<path d="M260 380 Q240 340 230 300 Q222 270 210 250"/>
<path d="M160 330 Q180 320 200 322 Q220 320 240 330"/>
<path d="M170 295 Q190 285 200 287 Q210 285 230 295"/>
<path d="M190 250 Q196 230 200 210 Q204 230 210 250"/>
<path d="M200 210 Q175 190 155 165 Q168 155 182 168 Q170 152 186 148 Q198 160 192 178 Q198 158 212 152 Q226 162 214 176 Q226 156 242 158 Q246 172 232 182 Q248 168 258 172 Q256 190 238 196"/>
<path d="M200 210 L238 196"/>
<path d="M200 180 Q188 175 182 182"/>
<path d="M200 165 Q214 160 218 168"/>
<ellipse cx="200" cy="200" rx="8" ry="5"/>
<line x1="200" y1="195" x2="200" y2="180"/>
</g></svg>
