<?xml version="1.0" encoding="UTF-8"?>
<svg xmlns="http://www.w3.org/2000/svg" width="400" height="400" viewBox="0 0 400 400">
<g stroke="#1a1a1a" stroke-width="1.5" fill="none" stroke-linecap="round" stroke-linejoin="round">
<path d="M165 400 Q162 360 165 310 Q168 260 162 200"/>
<path d="M165 370 Q148 352 136 348"/>
<path d="M165 345 Q182 327 192 323"/>
<path d="M165 318 Q148 300 136 296"/>
<path d="M165 293 Q182 275 192 271"/>
<path d="M165 266 Q150 250 138 246"/>
<path d="M165 241 Q181 225 190 221"/>
<path d="M160 200 Q148 185 155 170 Q165 165 168 177 Q155 165 165 158 Q174 162 172 175"/>
<path d="M230 400 Q232 358 228 305 Q224 252 232 185"/>
<path d="M230 375 Q248 356 260 352"/>
<path d="M230 350 Q212 332 200 328"/>
<path d="M230 323 Q248 305 260 301"/>
<path d="M230 298 Q213 280 201 276"/>
<path d="M230 271 Q247 254 258 250"/>
<path d="M230 246 Q214 229 203 225"/>
<path d="M232 185 Q248 172 252 155 Q240 150 234 162 Q242 148 232 142 Q222 152 226 168"/>
<path d="M200 400 L200 200"/>
<ellipse cx="200" cy="198" rx="6" ry="10"/>
<ellipse cx="200" cy="185" rx="5" ry="9"/>
<ellipse cx="200" cy="173" rx="5" ry="8"/>
<ellipse cx="200" cy="162" rx="4" ry="7"/>
<ellipse cx="200" cy="152" rx="4" ry="6"/>
</g></svg>
