<?xml version="1.0" encoding="UTF-8"?>
<svg xmlns="http://www.w3.org/2000/svg" width="400" height="400" viewBox="0 0 400 400">
<g stroke="#1a1a1a" stroke-width="1.5" fill="none" stroke-linecap="round" stroke-linejoin="round">
<path d="M150 390 Q60 300 70 180 Q90 80 170 40 Q200 30 210 50 Q200 80 180 120 Q300 80 340 40 Q360 80 330 140 Q290 180 240 200 Q280 250 260 310 Q240 360 200 380 Q175 390 150 390Z"/>
<path d="M150 390 Q170 340 180 290 Q190 260 200 380"/>
<path d="M170 40 L240 200"/>
<path d="M180 120 Q220 110 250 140"/>
<path d="M200 80 Q240 75 268 100"/>
</g></svg>
