<?xml version="1.0" encoding="UTF-8"?>
<svg xmlns="http://www.w3.org/2000/svg" width="400" height="400" viewBox="0 0 400 400">
<g stroke="#1a1a1a" stroke-width="1.5" fill="none" stroke-linecap="round" stroke-linejoin="round">
<path d="M200 390 Q40 300 50 160 Q80 40 200 10 Q320 40 350 160 Q360 300 200 390Z"/>
<path d="M200 390 L200 10"/>
<path d="M200 350 Q150 320 120 290"/>
<path d="M200 350 Q250 320 280 290"/>
<path d="M200 310 Q145 278 108 248"/>
<path d="M200 310 Q255 278 292 248"/>
<path d="M200 270 Q142 238 100 205"/>
<path d="M200 270 Q258 238 300 205"/>
<path d="M200 230 Q144 200 105 168"/>
<path d="M200 230 Q256 200 295 168"/>
<path d="M200 190 Q148 164 115 138"/>
<path d="M200 190 Q252 164 285 138"/>
<path d="M200 150 Q158 130 135 110"/>
<path d="M200 150 Q242 130 265 110"/>
<path d="M200 110 Q170 96 155 80"/>
<path d="M200 110 Q230 96 245 80"/>
</g></svg>
