<?xml version="1.0" encoding="UTF-8"?>
<svg xmlns="http://www.w3.org/2000/svg" width="400" height="400" viewBox="0 0 400 400">
<g stroke="#1a1a1a" stroke-width="1.5" fill="none" stroke-linecap="round" stroke-linejoin="round">
<path d="M200 380 Q195 300 200 240"/>
<path d="M200 240 Q170 200 130 180 Q100 192 100 210 Q120 195 145 206 Q155 195 175 205"/>
<path d="M200 240 Q230 200 270 180 Q300 192 300 210 Q280 195 255 206 Q245 195 225 205"/>
<path d="M200 240 Q160 180 120 140 Q96 148 92 168 Q115 156 138 164 Q146 152 166 162"/>
<path d="M200 240 Q240 180 280 140 Q304 148 308 168 Q285 156 262 164 Q254 152 234 162"/>
<path d="M200 240 Q185 165 170 100 Q148 98 140 116 Q162 112 172 128 Q166 116 182 118"/>
<path d="M200 240 Q215 165 230 100 Q252 98 260 116 Q238 112 228 128 Q234 116 218 118"/>
<path d="M200 240 Q200 160 200 80 Q182 74 174 90 Q194 86 200 100"/>
<path d="M200 380 L200 240"/>
</g></svg>
