<?xml version="1.0" encoding="UTF-8"?>
<svg xmlns="http://www.w3.org/2000/svg" width="400" height="400" viewBox="0 0 400 400">
<g stroke="#1a1a1a" stroke-width="1.5" fill="none" stroke-linecap="round" stroke-linejoin="round">
<path d="M200 390 Q80 300 60 180 Q60 60 200 20"/>
<path d="M200 390 Q320 300 340 180 Q340 60 200 20"/>
<path d="M200 390 L200 20"/>
<line x1="110" y1="230" x2="200" y2="200"/>
<line x1="80" y1="170" x2="200" y2="155"/>
<line x1="90" y1="110" x2="200" y2="110"/>
<line x1="120" y1="60" x2="200" y2="65"/>
<line x1="290" y1="230" x2="200" y2="200"/>
<line x1="320" y1="170" x2="200" y2="155"/>
<line x1="310" y1="110" x2="200" y2="110"/>
<line x1="280" y1="60" x2="200" y2="65"/>
<path d="M60 180 Q100 160 140 180 Q100 200 60 180Z"/>
<path d="M340 180 Q300 160 260 180 Q300 200 340 180Z"/>
</g></svg>
