<?xml version="1.0" encoding="UTF-8"?>
<svg xmlns="http://www.w3.org/2000/svg" width="400" height="400" viewBox="0 0 400 400">
<g stroke="#1a1a1a" stroke-width="1.5" fill="none" stroke-linecap="round" stroke-linejoin="round">
<path d="M200 400 Q196 360 200 310 Q204 260 196 200 Q190 150 200 90"/>
<path d="M200 360 Q172 330 150 318"/>
<path d="M200 320 Q232 290 252 278"/>
<path d="M200 280 Q168 250 148 238"/>
<path d="M200 240 Q234 210 254 198"/>
<path d="M200 200 Q170 170 152 158"/>
<path d="M200 160 Q232 132 250 120"/>
<path d="M200 120 Q174 92 158 80"/>
<path d="M148 315 Q132 300 134 282 Q148 274 155 288"/>
<path d="M254 275 Q270 260 268 242 Q254 234 247 248"/>
<path d="M148 235 Q130 220 132 202 Q146 194 153 208"/>
<path d="M256 195 Q272 180 270 162 Q256 154 249 168"/>
<path d="M150 155 Q134 140 136 122 Q150 114 156 128"/>
<path d="M252 117 Q268 104 264 86 Q250 80 244 94"/>
<circle cx="134" cy="280" r="6"/>
<circle cx="268" cy="240" r="6"/>
<circle cx="132" cy="200" r="5"/>
<circle cx="270" cy="160" r="5"/>
<circle cx="136" cy="120" r="5"/>
<circle cx="264" cy="84" r="5"/>
</g></svg>
