<?xml version="1.0" encoding="UTF-8"?>
<svg xmlns="http://www.w3.org/2000/svg" width="400" height="400" viewBox="0 0 400 400">
<g stroke="#1a1a1a" stroke-width="1.5" fill="none" stroke-linecap="round" stroke-linejoin="round">
<path d="M40 300 Q120 270 200 260 Q280 250 360 230"/>
<path d="M120 270 Q110 240 115 218"/>
<path d="M220 258 Q215 228 220 205"/>
<path d="M320 238 Q318 210 325 190"/>
<path d="M100 265 Q90 255 88 242 Q96 238 104 248 Q96 238 106 232 Q114 242 106 254"/>
<path d="M270 250 Q262 240 262 228 Q270 224 276 234 Q270 224 280 220 Q286 230 278 242"/>
<path d="M220 200 Q212 186 218 170 Q228 162 234 172 Q238 182 228 200Z"/>
<path d="M220 200 Q232 190 244 192 Q248 202 238 208"/>
<path d="M218 170 Q214 158 220 148 Q228 146 230 156"/>
<circle cx="214" cy="164" r="4"/>
<path d="M214 164 Q208 160 204 162"/>
</g></svg>
