<?xml version="1.0" encoding="UTF-8"?>
<svg xmlns="http://www.w3.org/2000/svg" width="400" height="400" viewBox="0 0 400 400">
<g stroke="#1a1a1a" stroke-width="1.5" fill="none" stroke-linecap="round" stroke-linejoin="round">
<path d="M200 400 Q196 355 200 305"/>
<path d="M200 360 Q170 335 148 322"/>
<path d="M200 335 Q230 310 252 297"/>
<path d="M148 315 Q132 295 136 272 Q150 264 155 280"/>
<path d="M252 290 Q268 270 264 248 Q250 240 245 256"/>
<path d="M200 305 Q196 272 200 238"/>
<path d="M200 238 Q178 215 175 190 Q188 178 200 190 Q212 178 225 190 Q222 215 200 238Z"/>
<path d="M175 190 Q170 168 178 150 Q192 140 200 152 Q208 140 222 150 Q230 168 225 190"/>
<path d="M178 150 Q182 128 192 112 Q200 104 208 112 Q218 128 222 150"/>
<path d="M190 112 Q194 94 200 84 Q206 94 210 112"/>
<ellipse cx="200" cy="80" rx="10" ry="6"/>
</g></svg>
