<?xml version="1.0" encoding="UTF-8"?>
<svg xmlns="http://www.w3.org/2000/svg" width="400" height="400" viewBox="0 0 400 400">
<g stroke="#1a1a1a" stroke-width="1.5" fill="none" stroke-linecap="round" stroke-linejoin="round">
<path d="M200 400 Q196 352 200 298"/>
<path d="M200 360 Q168 338 146 325"/>
<path d="M200 338 Q232 316 254 303"/>
<path d="M200 315 Q172 298 154 290 Q152 278 164 278 Q158 265 170 265 Q174 278 168 290"/>
<path d="M200 298 Q228 281 246 273 Q248 261 236 261 Q242 248 230 248 Q226 261 232 273"/>
<path d="M200 298 Q196 264 200 228"/>
<path d="M200 228 Q178 204 176 178 Q190 166 200 180 Q210 166 224 178 Q222 204 200 228Z"/>
<path d="M176 178 Q170 154 178 134 Q192 122 200 136 Q208 122 222 134 Q230 154 224 178"/>
<path d="M178 134 Q182 110 192 94 Q200 84 208 94 Q218 110 222 134"/>
<path d="M188 94 Q193 76 200 66 Q207 76 212 94"/>
<ellipse cx="200" cy="62" rx="10" ry="6"/>
</g></svg>
