<?xml version="1.0" encoding="UTF-8"?>
<svg xmlns="http://www.w3.org/2000/svg" width="400" height="400" viewBox="0 0 400 400">
<g stroke="#1a1a1a" stroke-width="1.5" fill="none" stroke-linecap="round" stroke-linejoin="round">
<path d="M170 400 Q168 365 170 320"/>
<path d="M200 400 Q198 358 200 308"/>
<path d="M230 400 Q232 365 230 320"/>
<path d="M170 320 Q150 296 148 268 Q162 258 166 276"/>
<path d="M170 320 Q188 298 186 270 Q174 260 168 278"/>
<path d="M170 268 Q165 244 173 224 Q185 212 190 228 Q196 210 208 218 Q208 240 196 262"/>
<path d="M173 224 Q177 200 186 184 Q196 174 204 188 Q210 172 222 180 Q218 202 206 222"/>
<path d="M184 184 Q188 162 198 148 Q206 140 212 152 Q216 138 226 146 Q222 166 212 182"/>
<path d="M200 308 Q178 284 176 256 Q190 246 194 264"/>
<path d="M200 308 Q222 284 224 256 Q210 246 206 264"/>
<path d="M176 256 Q170 232 178 212 Q192 202 196 220 Q202 204 214 212 Q214 234 202 254"/>
<path d="M178 212 Q182 188 192 172 Q202 162 208 176 Q214 160 226 168 Q222 190 210 210"/>
<path d="M230 320 Q250 296 252 268 Q238 258 234 276"/>
<path d="M230 320 Q212 298 214 270 Q226 260 232 278"/>
<path d="M252 268 Q258 244 250 224 Q238 214 234 232 Q228 216 216 224 Q218 246 230 266"/>
</g></svg>
