<?xml version="1.0" encoding="UTF-8"?>
<svg xmlns="http://www.w3.org/2000/svg" width="400" height="400" viewBox="0 0 400 400">
<g stroke="#1a1a1a" stroke-width="1.5" fill="none" stroke-linecap="round" stroke-linejoin="round">
<path d="M200 380 Q60 280 80 140 Q120 40 200 20 Q280 40 320 140 Q340 280 200 380Z"/>
<path d="M200 380 L200 20"/>
<path d="M200 320 Q140 280 100 240"/>
<path d="M200 320 Q260 280 300 240"/>
<path d="M200 270 Q136 232 100 190"/>
<path d="M200 270 Q264 232 300 190"/>
<path d="M200 220 Q140 188 110 152"/>
<path d="M200 220 Q260 188 290 152"/>
<ellipse cx="130" cy="195" rx="18" ry="28" transform="rotate(-20 130 195)"/>
<ellipse cx="270" cy="195" rx="18" ry="28" transform="rotate(20 270 195)"/>
<ellipse cx="118" cy="155" rx="14" ry="22" transform="rotate(-25 118 155)"/>
<ellipse cx="282" cy="155" rx="14" ry="22" transform="rotate(25 282 155)"/>
</g></svg>
