<?xml version="1.0" encoding="UTF-8"?>
<svg xmlns="http://www.w3.org/2000/svg" width="400" height="400" viewBox="0 0 400 400">
<g stroke="#1a1a1a" stroke-width="1.5" fill="none" stroke-linecap="round" stroke-linejoin="round">
<path d="M200 370 Q80 285 80 175 Q80 75 200 40 Q320 75 320 175 Q320 285 200 370Z"/>
<path d="M200 370 L200 40"/>
<path d="M200 315 Q150 285 120 252"/>
<path d="M200 315 Q250 285 280 252"/>
<path d="M200 263 Q144 234 112 200"/>
<path d="M200 263 Q256 234 288 200"/>
<path d="M200 210 Q148 184 120 154"/>
<path d="M200 210 Q252 184 280 154"/>
<path d="M200 160 Q158 138 136 112"/>
<path d="M200 160 Q242 138 264 112"/>
<ellipse cx="136" cy="205" rx="18" ry="26" transform="rotate(-20 136 205)"/>
<ellipse cx="264" cy="205" rx="18" ry="26" transform="rotate(20 264 205)"/>
<ellipse cx="126" cy="157" rx="14" ry="20" transform="rotate(-22 126 157)"/>
<ellipse cx="274" cy="157" rx="14" ry="20" transform="rotate(22 274 157)"/>
<ellipse cx="148" cy="115" rx="11" ry="16" transform="rotate(-15 148 115)"/>
<ellipse cx="252" cy="115" rx="11" ry="16" transform="rotate(15 252 115)"/>
<ellipse cx="165" cy="78" rx="9" ry="13"/>
<ellipse cx="235" cy="78" rx="9" ry="13"/>
</g></svg>
