<?xml version="1.0" encoding="UTF-8"?>
<svg xmlns="http://www.w3.org/2000/svg" width="400" height="400" viewBox="0 0 400 400">
<g stroke="#1a1a1a" stroke-width="1.5" fill="none" stroke-linecap="round" stroke-linejoin="round">
<circle cx="200" cy="200" r="18"/>
<circle cx="200" cy="200" r="32"/>
<path d="M200 168 L200 100"/>
<path d="M200 168 L200 100" transform="rotate(30 200 200)"/>
<path d="M200 168 L200 100" transform="rotate(60 200 200)"/>
<path d="M200 168 L200 100" transform="rotate(90 200 200)"/>
<path d="M200 168 L200 100" transform="rotate(120 200 200)"/>
<path d="M200 168 L200 100" transform="rotate(150 200 200)"/>
<path d="M200 168 L200 100" transform="rotate(180 200 200)"/>
<path d="M200 168 L200 100" transform="rotate(210 200 200)"/>
<path d="M200 168 L200 100" transform="rotate(240 200 200)"/>
<path d="M200 168 L200 100" transform="rotate(270 200 200)"/>
<path d="M200 168 L200 100" transform="rotate(300 200 200)"/>
<path d="M200 168 L200 100" transform="rotate(330 200 200)"/>
<path d="M200 50 Q182 65 190 82 Q200 68 210 82 Q218 65 200 50Z"/>
<path d="M200 50 Q182 65 190 82 Q200 68 210 82 Q218 65 200 50Z" transform="rotate(30 200 200)"/>
<path d="M200 50 Q182 65 190 82 Q200 68 210 82 Q218 65 200 50Z" transform="rotate(60 200 200)"/>
<path d="M200 50 Q182 65 190 82 Q200 68 210 82 Q218 65 200 50Z" transform="rotate(90 200 200)"/>
<path d="M200 50 Q182 65 190 82 Q200 68 210 82 Q218 65 200 50Z" transform="rotate(120 200 200)"/>
<path d="M200 50 Q182 65 190 82 Q200 68 210 82 Q218 65 200 50Z" transform="rotate(150 200 200)"/>
<path d="M200 50 Q182 65 190 82 Q200 68 210 82 Q218 65 200 50Z" transform="rotate(180 200 200)"/>
<path d="M200 50 Q182 65 190 82 Q200 68 210 82 Q218 65 200 50Z" transform="rotate(210 200 200)"/>
<path d="M200 50 Q182 65 190 82 Q200 68 210 82 Q218 65 200 50Z" transform="rotate(240 200 200)"/>
<path d="M200 50 Q182 65 190 82 Q200 68 210 82 Q218 65 200 50Z" transform="rotate(270 200 200)"/>
<path d="M200 50 Q182 65 190 82 Q200 68 210 82 Q218 65 200 50Z" transform="rotate(300 200 200)"/>
<path d="M200 50 Q182 65 190 82 Q200 68 210 82 Q218 65 200 50Z" transform="rotate(330 200 200)"/>
<line x1="200" y1="182" x2="200" y2="155" transform="rotate(0 200 200)"/>
<line x1="200" y1="182" x2="200" y2="155" transform="rotate(72 200 200)"/>
<line x1="200" y1="182" x2="200" y2="155" transform="rotate(144 200 200)"/>
<line x1="200" y1="182" x2="200" y2="155" transform="rotate(216 200 200)"/>
<line x1="200" y1="182" x2="200" y2="155" transform="rotate(288 200 200)"/>
</g></svg>
