<?xml version="1.0" encoding="UTF-8"?>
<svg xmlns="http://www.w3.org/2000/svg" width="400" height="400" viewBox="0 0 400 400">
<g stroke="#1a1a1a" stroke-width="1.5" fill="none" stroke-linecap="round" stroke-linejoin="round">
<path d="M50 380 Q100 340 150 290 Q180 250 200 210"/>
<path d="M140 300 Q155 272 145 252 Q135 270 140 300Z"/>
<path d="M170 258 Q188 235 178 215 Q165 232 170 258Z"/>
<path d="M120 330 Q108 314 120 300"/>
<path d="M90 360 Q75 344 88 330"/>
<circle cx="200" cy="200" r="16"/>
<circle cx="200" cy="200" r="28"/>
<path d="M200 172 Q186 148 180 118 Q200 108 220 118 Q214 148 200 172Z"/>
<path d="M200 172 Q186 148 180 118 Q200 108 220 118 Q214 148 200 172Z" transform="rotate(72 200 200)"/>
<path d="M200 172 Q186 148 180 118 Q200 108 220 118 Q214 148 200 172Z" transform="rotate(144 200 200)"/>
<path d="M200 172 Q186 148 180 118 Q200 108 220 118 Q214 148 200 172Z" transform="rotate(216 200 200)"/>
<path d="M200 172 Q186 148 180 118 Q200 108 220 118 Q214 148 200 172Z" transform="rotate(288 200 200)"/>
<path d="M200 184 L200 120" transform="rotate(36 200 200)"/>
<path d="M200 184 L200 120" transform="rotate(108 200 200)"/>
<path d="M200 184 L200 120" transform="rotate(180 200 200)"/>
<path d="M200 184 L200 120" transform="rotate(252 200 200)"/>
<path d="M200 184 L200 120" transform="rotate(324 200 200)"/>
<path d="M250 180 Q280 160 290 130"/>
<path d="M280 130 Q295 115 285 100 Q276 120 280 130Z"/>
<path d="M260 170 Q275 155 268 138"/>
</g></svg>
