<?xml version="1.0" encoding="UTF-8"?>
<svg xmlns="http://www.w3.org/2000/svg" width="400" height="400" viewBox="0 0 400 400">
<g stroke="#1a1a1a" stroke-width="1.5" fill="none" stroke-linecap="round" stroke-linejoin="round">
<circle cx="140" cy="150" r="16"/>
<path d="M140 134 Q128 114 128 96 Q140 90 148 104 Q152 90 164 98 Q160 116 140 134Z"/>
<path d="M156 150 Q172 140 184 144 Q182 158 170 162 Q160 158 156 150Z"/>
<path d="M156 150 Q168 164 164 180 Q152 184 144 174 Q140 162 156 150Z"/>
<path d="M140 166 Q136 182 128 190 Q118 184 120 172 Q126 164 140 166Z"/>
<path d="M124 150 Q108 158 96 152 Q96 138 108 134 Q118 136 124 150Z"/>
<path d="M124 150 Q116 134 120 118 Q132 114 138 126 Q138 140 124 150Z"/>
<circle cx="260" cy="140" r="14"/>
<path d="M260 126 Q250 108 250 92 Q260 86 268 98 Q272 86 282 94 Q278 112 260 126Z"/>
<path d="M274 140 Q288 132 298 136 Q296 148 286 152 Q276 148 274 140Z"/>
<path d="M274 140 Q284 152 282 166 Q272 170 264 162 Q260 152 274 140Z"/>
<path d="M260 154 Q258 168 252 176 Q242 170 244 160 Q248 152 260 154Z"/>
<path d="M246 140 Q232 148 222 142 Q222 130 232 126 Q242 128 246 140Z"/>
<circle cx="200" cy="260" r="18"/>
<path d="M200 242 Q186 218 184 196 Q198 190 208 206 Q212 190 226 198 Q222 220 200 242Z"/>
<path d="M218 260 Q236 250 250 254 Q248 270 234 276 Q222 272 218 260Z"/>
<path d="M218 260 Q232 276 228 294 Q216 300 206 288 Q202 274 218 260Z"/>
<path d="M200 278 Q196 296 188 306 Q176 298 178 284 Q184 274 200 278Z"/>
<path d="M182 260 Q164 270 150 262 Q150 246 164 242 Q176 244 182 260Z"/>
<path d="M182 260 Q170 240 174 220 Q188 214 196 228 Q198 246 182 260Z"/>
<path d="M140 166 Q160 220 176 250"/>
<path d="M260 154 Q248 200 224 238"/>
</g></svg>
