<?xml version="1.0" encoding="UTF-8"?>
<svg xmlns="http://www.w3.org/2000/svg" width="400" height="400" viewBox="0 0 400 400">
<g stroke="#1a1a1a" stroke-width="1.5" fill="none" stroke-linecap="round" stroke-linejoin="round">
<circle cx="200" cy="200" r="28"/>
<path d="M200 172 Q186 148 186 124 Q200 118 212 126 Q214 148 200 172Z"/>
<path d="M200 172 Q222 152 238 138 Q248 152 238 164 Q226 170 200 172Z"/>
<path d="M228 200 Q250 188 268 192 Q268 208 252 216 Q238 214 228 200Z"/>
<path d="M228 200 Q246 220 246 242 Q230 250 218 238 Q214 222 228 200Z"/>
<path d="M200 228 Q204 252 196 268 Q182 268 174 254 Q178 238 200 228Z"/>
<path d="M200 228 Q178 246 162 244 Q156 228 168 216 Q184 214 200 228Z"/>
<path d="M172 200 Q152 212 136 208 Q136 190 152 184 Q168 186 172 200Z"/>
<path d="M172 200 Q158 178 162 156 Q178 150 188 164 Q190 182 172 200Z"/>
<path d="M200 160 Q186 138 182 116 Q200 110 216 120 Q216 142 200 160Z"/>
<path d="M240 160 Q256 140 270 138 Q274 156 262 166 Q248 168 240 160Z"/>
<path d="M240 240 Q258 248 268 262 Q256 274 240 268 Q230 256 240 240Z"/>
<path d="M160 240 Q142 252 132 264 Q144 276 160 268 Q170 256 160 240Z"/>
<path d="M160 160 Q142 150 130 138 Q142 126 158 134 Q166 146 160 160Z"/>
</g></svg>
