<?xml version="1.0" encoding="UTF-8"?>
<svg xmlns="http://www.w3.org/2000/svg" width="400" height="400" viewBox="0 0 400 400">
<g stroke="#1a1a1a" stroke-width="1.5" fill="none" stroke-linecap="round" stroke-linejoin="round">
<circle cx="200" cy="200" r="24"/>
<path d="M200 176 Q186 152 184 128 Q200 122 210 140 Q218 122 232 130 Q228 154 200 176Z"/>
<path d="M200 176 Q220 160 240 156 Q248 172 234 182 Q220 186 200 176Z"/>
<path d="M224 200 Q248 192 268 196 Q268 214 250 220 Q234 220 224 200Z"/>
<path d="M224 200 Q244 218 248 238 Q232 248 220 238 Q212 224 224 200Z"/>
<path d="M200 224 Q206 248 198 268 Q184 270 176 254 Q178 238 200 224Z"/>
<path d="M200 224 Q180 242 164 244 Q156 228 168 218 Q182 212 200 224Z"/>
<path d="M176 200 Q154 208 138 202 Q140 184 156 178 Q170 178 176 200Z"/>
<path d="M176 200 Q162 180 164 160 Q180 152 190 166 Q194 182 176 200Z"/>
<path d="M200 176 Q218 148 232 130"/>
<path d="M200 176 Q180 150 176 128 Q190 118 202 134"/>
<circle cx="200" cy="200" r="60"/>
<circle cx="200" cy="200" r="95"/>
<circle cx="200" cy="200" r="128"/>
</g></svg>
