<?xml version="1.0" encoding="UTF-8"?>
<svg xmlns="http://www.w3.org/2000/svg" width="400" height="400" viewBox="0 0 400 400">
<g stroke="#1a1a1a" stroke-width="1.5" fill="none" stroke-linecap="round" stroke-linejoin="round">
<path d="M200 400 Q196 345 200 280 Q204 215 196 140"/>
<path d="M200 360 Q170 330 148 315"/>
<path d="M200 315 Q232 285 254 268"/>
<path d="M200 270 Q166 242 144 226"/>
<path d="M200 225 Q234 197 256 180"/>
<path d="M200 180 Q168 152 148 136"/>
<path d="M200 135 Q232 109 250 92"/>
<path d="M140 305 Q125 288 128 270"/>
<path d="M264 258 Q280 242 276 224"/>
<circle cx="128" cy="268" r="12"/>
<ellipse cx="128" cy="268" rx="9" ry="18" transform="rotate(0 128 268)"/>
<ellipse cx="128" cy="268" rx="9" ry="18" transform="rotate(60 128 268)"/>
<ellipse cx="128" cy="268" rx="9" ry="18" transform="rotate(120 128 268)"/>
<path d="M136 220 Q120 206 122 190"/>
<path d="M264 175 Q280 162 276 146"/>
<path d="M140 130 Q124 116 126 100"/>
<path d="M122 188" />
<circle cx="122" cy="188" r="10"/>
<ellipse cx="122" cy="188" rx="8" ry="15" transform="rotate(0 122 188)"/>
<ellipse cx="122" cy="188" rx="8" ry="15" transform="rotate(60 122 188)"/>
<ellipse cx="122" cy="188" rx="8" ry="15" transform="rotate(120 122 188)"/>
<circle cx="276" cy="144" r="11"/>
<ellipse cx="276" cy="144" rx="8" ry="16" transform="rotate(0 276 144)"/>
<ellipse cx="276" cy="144" rx="8" ry="16" transform="rotate(60 276 144)"/>
<ellipse cx="276" cy="144" rx="8" ry="16" transform="rotate(120 276 144)"/>
<circle cx="126" cy="98" r="9"/>
<ellipse cx="126" cy="98" rx="7" ry="14" transform="rotate(0 126 98)"/>
<ellipse cx="126" cy="98" rx="7" ry="14" transform="rotate(60 126 98)"/>
<ellipse cx="126" cy="98" rx="7" ry="14" transform="rotate(120 126 98)"/>
</g></svg>
