<?xml version="1.0" encoding="UTF-8"?>
<svg xmlns="http://www.w3.org/2000/svg" width="400" height="400" viewBox="0 0 400 400">
<g stroke="#1a1a1a" stroke-width="1.5" fill="none" stroke-linecap="round" stroke-linejoin="round">
<path d="M200 400 Q196 345 198 280 Q202 215 196 150 Q192 100 200 50"/>
<path d="M198 340 Q168 310 145 295"/>
<path d="M198 295 Q230 265 252 250"/>
<path d="M198 250 Q165 222 143 208"/>
<path d="M198 205 Q232 177 254 162"/>
<path d="M198 160 Q166 132 145 118"/>
<path d="M198 115 Q230 89 250 75"/>
<path d="M138 285 Q125 272 128 256"/>
<path d="M262 240 Q275 228 272 212"/>
<path d="M136 198 Q124 186 126 170"/>
<path d="M264 152 Q276 140 274 124"/>
<circle cx="128" cy="256" r="5"/>
<circle cx="120" cy="268" r="4"/>
<circle cx="136" cy="270" r="4"/>
<circle cx="272" cy="212" r="5"/>
<circle cx="264" cy="224" r="4"/>
<circle cx="280" cy="220" r="4"/>
<circle cx="126" cy="170" r="4"/>
<circle cx="118" cy="182" r="3"/>
<circle cx="134" cy="180" r="3"/>
</g></svg>
