<?xml version="1.0" encoding="UTF-8"?>
<svg xmlns="http://www.w3.org/2000/svg" width="400" height="400" viewBox="0 0 400 400">
<g stroke="#1a1a1a" stroke-width="1.5" fill="none" stroke-linecap="round" stroke-linejoin="round">
<path d="M200 400 Q196 340 200 270 Q204 200 195 130"/>
<path d="M200 340 Q165 305 140 280"/>
<path d="M200 290 Q235 255 258 232"/>
<path d="M200 230 Q168 200 148 176"/>
<circle cx="130" cy="268" r="14"/>
<ellipse cx="130" cy="268" rx="10" ry="22" transform="rotate(0 130 268)"/>
<ellipse cx="130" cy="268" rx="10" ry="22" transform="rotate(60 130 268)"/>
<ellipse cx="130" cy="268" rx="10" ry="22" transform="rotate(120 130 268)"/>
<circle cx="268" cy="220" r="12"/>
<ellipse cx="268" cy="220" rx="9" ry="19" transform="rotate(0 268 220)"/>
<ellipse cx="268" cy="220" rx="9" ry="19" transform="rotate(60 268 220)"/>
<ellipse cx="268" cy="220" rx="9" ry="19" transform="rotate(120 268 220)"/>
<circle cx="145" cy="162" r="10"/>
<ellipse cx="145" cy="162" rx="8" ry="17" transform="rotate(0 145 162)"/>
<ellipse cx="145" cy="162" rx="8" ry="17" transform="rotate(60 145 162)"/>
<ellipse cx="145" cy="162" rx="8" ry="17" transform="rotate(120 145 162)"/>
<path d="M148 290 Q136 280 130 268"/>
<path d="M258 238 Q264 228 268 220"/>
<path d="M155 172 Q150 166 145 162"/>
</g></svg>
