<?xml version="1.0" encoding="UTF-8"?>
<svg xmlns="http://www.w3.org/2000/svg" width="400" height="400" viewBox="0 0 400 400">
<g stroke="#1a1a1a" stroke-width="1.5" fill="none" stroke-linecap="round" stroke-linejoin="round">
<path d="M200 400 Q196 330 200 250 Q204 170 196 80"/>
<path d="M200 360 Q172 335 148 318"/>
<path d="M200 320 Q228 295 250 278"/>
<path d="M200 280 Q168 255 144 240"/>
<path d="M200 240 Q232 215 254 198"/>
<path d="M200 200 Q170 178 150 162"/>
<path d="M200 160 Q228 138 246 120"/>
<path d="M148 318 Q138 304 140 290 Q152 286 158 298"/>
<path d="M250 278 Q262 264 260 250 Q248 246 242 258"/>
<path d="M144 240 Q132 228 134 214 Q146 210 152 222"/>
<path d="M254 198 Q266 186 264 172 Q252 168 246 180"/>
<path d="M150 162 Q138 150 140 136 Q152 132 158 144"/>
<path d="M246 120 Q258 108 256 94 Q244 90 238 102"/>
</g></svg>
