<?xml version="1.0" encoding="UTF-8"?>
<svg xmlns="http://www.w3.org/2000/svg" width="400" height="400" viewBox="0 0 400 400">
<g stroke="#1a1a1a" stroke-width="1.5" fill="none" stroke-linecap="round" stroke-linejoin="round">
<path d="M200 400 Q197 340 200 270 Q203 200 198 120"/>
<path d="M200 370 Q178 356 160 358 Q162 342 180 340 Q168 326 156 330 Q158 314 176 312 Q164 298 154 304 Q156 288 174 286"/>
<path d="M200 350 Q222 336 240 338 Q238 322 220 320 Q232 306 244 310 Q242 294 224 292 Q236 278 246 282 Q244 266 226 264"/>
<path d="M200 310 Q178 296 162 298 Q164 282 180 280"/>
<path d="M200 270 Q222 256 238 258 Q236 242 218 240"/>
<path d="M200 230 Q180 216 164 218 Q166 202 182 200"/>
<path d="M200 190 Q220 176 234 178 Q232 162 216 160"/>
<path d="M200 150 Q182 137 168 140 Q170 124 184 122"/>
</g></svg>
