<?xml version="1.0" encoding="UTF-8"?>
<svg xmlns="http://www.w3.org/2000/svg" width="400" height="400" viewBox="0 0 400 400">
<g stroke="#1a1a1a" stroke-width="1.5" fill="none" stroke-linecap="round" stroke-linejoin="round">
<circle cx="200" cy="200" r="18"/>
<ellipse cx="200" cy="200" rx="14" ry="38" transform="rotate(0 200 200)"/>
<ellipse cx="200" cy="200" rx="14" ry="38" transform="rotate(45 200 200)"/>
<ellipse cx="200" cy="200" rx="14" ry="38" transform="rotate(90 200 200)"/>
<ellipse cx="200" cy="200" rx="14" ry="38" transform="rotate(135 200 200)"/>
<ellipse cx="200" cy="200" rx="14" ry="38" transform="rotate(180 200 200)"/>
<ellipse cx="200" cy="200" rx="14" ry="38" transform="rotate(225 200 200)"/>
<ellipse cx="200" cy="200" rx="14" ry="38" transform="rotate(270 200 200)"/>
<ellipse cx="200" cy="200" rx="14" ry="38" transform="rotate(315 200 200)"/>
<circle cx="200" cy="200" r="52"/>
<circle cx="200" cy="200" r="80"/>
<circle cx="200" cy="200" r="108"/>
</g></svg>
