<?xml version="1.0" encoding="UTF-8"?>
<svg xmlns="http://www.w3.org/2000/svg" width="400" height="400" viewBox="0 0 400 400">
<g stroke="#1a1a1a" stroke-width="1.5" fill="none" stroke-linecap="round" stroke-linejoin="round">
<path d="M200 400 Q196 350 200 300 Q204 250 200 210"/>
<path d="M200 320 Q170 290 150 270 Q158 268 168 278 Q176 265 190 272"/>
<path d="M200 300 Q230 270 250 252 Q242 250 232 260 Q226 248 212 256"/>
<path d="M185 210 Q175 195 176 178 Q186 168 196 174 Q190 190 185 210Z"/>
<path d="M215 210 Q225 195 224 178 Q214 168 204 174 Q210 190 215 210Z"/>
<path d="M185 210 Q190 198 200 196 Q210 198 215 210"/>
<path d="M182 195 Q188 180 200 178 Q212 180 218 195"/>
<ellipse cx="200" cy="175" rx="16" ry="10"/>
<path d="M184 175 Q188 158 200 154 Q212 158 216 175"/>
</g></svg>
