<?xml version="1.0" encoding="UTF-8"?>
<svg xmlns="http://www.w3.org/2000/svg" width="400" height="400" viewBox="0 0 400 400">
<g stroke="#1a1a1a" stroke-width="1.5" fill="none" stroke-linecap="round" stroke-linejoin="round">
<circle cx="200" cy="190" r="16"/>
<ellipse cx="200" cy="190" rx="12" ry="34" transform="rotate(0 200 190)"/>
<ellipse cx="200" cy="190" rx="12" ry="34" transform="rotate(40 200 190)"/>
<ellipse cx="200" cy="190" rx="12" ry="34" transform="rotate(80 200 190)"/>
<ellipse cx="200" cy="190" rx="12" ry="34" transform="rotate(120 200 190)"/>
<ellipse cx="200" cy="190" rx="12" ry="34" transform="rotate(160 200 190)"/>
<ellipse cx="200" cy="190" rx="12" ry="34" transform="rotate(200 200 190)"/>
<ellipse cx="200" cy="190" rx="12" ry="34" transform="rotate(240 200 190)"/>
<ellipse cx="200" cy="190" rx="12" ry="34" transform="rotate(280 200 190)"/>
<ellipse cx="200" cy="190" rx="12" ry="34" transform="rotate(320 200 190)"/>
<circle cx="200" cy="190" r="48"/>
<circle cx="200" cy="190" r="76"/>
<path d="M160 310 Q140 280 150 260 Q170 250 180 270 Q170 285 160 310Z"/>
<path d="M240 310 Q260 280 250 260 Q230 250 220 270 Q230 285 240 310Z"/>
<path d="M160 310 L240 310"/>
<line x1="200" y1="270" x2="200" y2="310"/>
</g></svg>
