<?xml version="1.0" encoding="UTF-8"?>
<svg xmlns="http://www.w3.org/2000/svg" width="400" height="400" viewBox="0 0 400 400">
<g stroke="#1a1a1a" stroke-width="1.5" fill="none" stroke-linecap="round" stroke-linejoin="round">
<circle cx="200" cy="200" r="20"/>
<path d="M200 180 Q184 158 178 134 Q196 130 206 148 Q212 130 228 136 Q224 160 200 180Z"/>
<path d="M220 200 Q244 192 264 198 Q260 216 242 220 Q228 216 220 200Z" transform="rotate(72 200 200)"/>
<path d="M200 180 Q184 158 178 134 Q196 130 206 148 Q212 130 228 136 Q224 160 200 180Z" transform="rotate(144 200 200)"/>
<path d="M200 180 Q184 158 178 134 Q196 130 206 148 Q212 130 228 136 Q224 160 200 180Z" transform="rotate(216 200 200)"/>
<path d="M200 180 Q184 158 178 134 Q196 130 206 148 Q212 130 228 136 Q224 160 200 180Z" transform="rotate(288 200 200)"/>
<line x1="200" y1="220" x2="200" y2="340"/>
<path d="M200 290 Q172 268 158 250"/>
<path d="M200 270 Q228 248 242 230"/>
<path d="M158 250 Q168 240 178 248 Q172 258 158 250Z"/>
<path d="M242 230 Q232 220 222 228 Q228 238 242 230Z"/>
</g></svg>
