<?xml version="1.0" encoding="UTF-8"?>
<svg xmlns="http://www.w3.org/2000/svg" width="400" height="400" viewBox="0 0 400 400">
<g stroke="#1a1a1a" stroke-width="1.5" fill="none" stroke-linecap="round" stroke-linejoin="round">
<circle cx="200" cy="200" r="12"/>
<circle cx="200" cy="200" r="28"/>
<circle cx="200" cy="200" r="70"/>
<circle cx="200" cy="200" r="120"/>
<g transform="translate(200 200)">
  <path d="M0 -28 Q-6 -50 0 -70 Q6 -50 0 -28Z"/>
  <path d="M0 -28 Q-6 -50 0 -70 Q6 -50 0 -28Z" transform="rotate(72)"/>
  <path d="M0 -28 Q-6 -50 0 -70 Q6 -50 0 -28Z" transform="rotate(144)"/>
  <path d="M0 -28 Q-6 -50 0 -70 Q6 -50 0 -28Z" transform="rotate(216)"/>
  <path d="M0 -28 Q-6 -50 0 -70 Q6 -50 0 -28Z" transform="rotate(288)"/>
  <path d="M0 -70 Q-5 -95 0 -120 Q5 -95 0 -70Z"/>
  <path d="M0 -70 Q-5 -95 0 -120 Q5 -95 0 -70Z" transform="rotate(72)"/>
  <path d="M0 -70 Q-5 -95 0 -120 Q5 -95 0 -70Z" transform="rotate(144)"/>
  <path d="M0 -70 Q-5 -95 0 -120 Q5 -95 0 -70Z" transform="rotate(216)"/>
  <path d="M0 -70 Q-5 -95 0 -120 Q5 -95 0 -70Z" transform="rotate(288)"/>
  <g transform="rotate(36)"><path d="M0 -28 Q-4 -46 0 -60 Q4 -46 0 -28Z"/></g>
  <g transform="rotate(108)"><path d="M0 -28 Q-4 -46 0 -60 Q4 -46 0 -28Z"/></g>
  <g transform="rotate(180)"><path d="M0 -28 Q-4 -46 0 -60 Q4 -46 0 -28Z"/></g>
  <g transform="rotate(252)"><path d="M0 -28 Q-4 -46 0 -60 Q4 -46 0 -28Z"/></g>
  <g transform="rotate(324)"><path d="M0 -28 Q-4 -46 0 -60 Q4 -46 0 -28Z"/></g>
  <line x1="0" y1="-28" x2="0" y2="-120"/>
  <line x1="0" y1="-28" x2="0" y2="-120" transform="rotate(36)"/>
  <line x1="0" y1="-28" x2="0" y2="-120" transform="rotate(72)"/>
  <line x1="0" y1="-28" x2="0" y2="-120" transform="rotate(108)"/>
  <line x1="0" y1="-28" x2="0" y2="-120" transform="rotate(144)"/>
  <line x1="0" y1="-28" x2="0" y2="-120" transform="rotate(180)"/>
  <line x1="0" y1="-28" x2="0" y2="-120" transform="rotate(216)"/>
  <line x1="0" y1="-28" x2="0" y2="-120" transform="rotate(252)"/>
  <line x1="0" y1="-28" x2="0" y2="-120" transform="rotate(288)"/>
  <line x1="0" y1="-28" x2="0" y2="-120" transform="rotate(324)"/>
</g>
</g></svg>
