<?xml version="1.0" encoding="UTF-8"?>
<svg xmlns="http://www.w3.org/2000/svg" width="400" height="400" viewBox="0 0 400 400">
<g stroke="#1a1a1a" stroke-width="1.5" fill="none" stroke-linecap="round" stroke-linejoin="round">
<path d="M200 400 Q196 370 200 335"/>
<path d="M200 335 Q180 300 160 275"/>
<path d="M200 335 Q220 300 240 275"/>
<path d="M200 335 Q196 300 200 265"/>
<path d="M155 268 Q130 238 135 210"/>
<path d="M245 268 Q270 238 265 210"/>
<path d="M200 265 Q180 232 182 208"/>
<path d="M200 265 Q220 232 218 208"/>
<path d="M130 205 Q110 175 120 150"/>
<path d="M270 205 Q290 175 280 150"/>
<path d="M178 202 Q158 172 168 148"/>
<path d="M222 202 Q242 172 232 148"/>
<g transform="translate(118 145)"><circle r="5"/><path d="M0-5Q-3-12 0-16Q3-12 0-5Z"/><path d="M0-5Q-3-12 0-16Q3-12 0-5Z" transform="rotate(72 0 0)"/><path d="M0-5Q-3-12 0-16Q3-12 0-5Z" transform="rotate(144 0 0)"/><path d="M0-5Q-3-12 0-16Q3-12 0-5Z" transform="rotate(216 0 0)"/><path d="M0-5Q-3-12 0-16Q3-12 0-5Z" transform="rotate(288 0 0)"/></g>
<g transform="translate(282 145)"><circle r="5"/><path d="M0-5Q-3-12 0-16Q3-12 0-5Z"/><path d="M0-5Q-3-12 0-16Q3-12 0-5Z" transform="rotate(72 0 0)"/><path d="M0-5Q-3-12 0-16Q3-12 0-5Z" transform="rotate(144 0 0)"/><path d="M0-5Q-3-12 0-16Q3-12 0-5Z" transform="rotate(216 0 0)"/><path d="M0-5Q-3-12 0-16Q3-12 0-5Z" transform="rotate(288 0 0)"/></g>
<g transform="translate(164 143)"><circle r="5"/><path d="M0-5Q-3-12 0-16Q3-12 0-5Z"/><path d="M0-5Q-3-12 0-16Q3-12 0-5Z" transform="rotate(72 0 0)"/><path d="M0-5Q-3-12 0-16Q3-12 0-5Z" transform="rotate(144 0 0)"/><path d="M0-5Q-3-12 0-16Q3-12 0-5Z" transform="rotate(216 0 0)"/><path d="M0-5Q-3-12 0-16Q3-12 0-5Z" transform="rotate(288 0 0)"/></g>
<g transform="translate(236 143)"><circle r="5"/><path d="M0-5Q-3-12 0-16Q3-12 0-5Z"/><path d="M0-5Q-3-12 0-16Q3-12 0-5Z" transform="rotate(72 0 0)"/><path d="M0-5Q-3-12 0-16Q3-12 0-5Z" transform="rotate(144 0 0)"/><path d="M0-5Q-3-12 0-16Q3-12 0-5Z" transform="rotate(216 0 0)"/><path d="M0-5Q-3-12 0-16Q3-12 0-5Z" transform="rotate(288 0 0)"/></g>
<circle cx="155" cy="242" r="4"/><circle cx="245" cy="242" r="4"/><circle cx="168" cy="218" r="3"/><circle cx="232" cy="218" r="3"/><circle cx="140" cy="185" r="3"/><circle cx="260" cy="185" r="3"/>
</g></svg>
