<?xml version="1.0" encoding="UTF-8"?>
<svg xmlns="http://www.w3.org/2000/svg" width="400" height="400" viewBox="0 0 400 400">
<g stroke="#1a1a1a" stroke-width="1.5" fill="none" stroke-linecap="round" stroke-linejoin="round">
<path d="M80 380 Q120 340 160 290 Q190 250 210 210 Q230 170 260 130 Q290 90 330 60"/>
<path d="M160 290 Q140 265 144 242"/>
<path d="M210 210 Q234 200 248 186"/>
<path d="M260 130 Q238 118 238 98"/>
<g transform="translate(140 238)">
  <circle r="5"/>
  <path d="M0 -5 Q-3 -12 0 -16 Q3 -12 0 -5Z"/>
  <path d="M0 -5 Q-3 -12 0 -16 Q3 -12 0 -5Z" transform="rotate(72 0 0)"/>
  <path d="M0 -5 Q-3 -12 0 -16 Q3 -12 0 -5Z" transform="rotate(144 0 0)"/>
  <path d="M0 -5 Q-3 -12 0 -16 Q3 -12 0 -5Z" transform="rotate(216 0 0)"/>
  <path d="M0 -5 Q-3 -12 0 -16 Q3 -12 0 -5Z" transform="rotate(288 0 0)"/>
</g>
<g transform="translate(250 184)">
  <circle r="5"/>
  <path d="M0 -5 Q-3 -12 0 -16 Q3 -12 0 -5Z"/>
  <path d="M0 -5 Q-3 -12 0 -16 Q3 -12 0 -5Z" transform="rotate(72 0 0)"/>
  <path d="M0 -5 Q-3 -12 0 -16 Q3 -12 0 -5Z" transform="rotate(144 0 0)"/>
  <path d="M0 -5 Q-3 -12 0 -16 Q3 -12 0 -5Z" transform="rotate(216 0 0)"/>
  <path d="M0 -5 Q-3 -12 0 -16 Q3 -12 0 -5Z" transform="rotate(288 0 0)"/>
</g>
<g transform="translate(238 95)">
  <circle r="5"/>
  <path d="M0 -5 Q-3 -12 0 -16 Q3 -12 0 -5Z"/>
  <path d="M0 -5 Q-3 -12 0 -16 Q3 -12 0 -5Z" transform="rotate(72 0 0)"/>
  <path d="M0 -5 Q-3 -12 0 -16 Q3 -12 0 -5Z" transform="rotate(144 0 0)"/>
  <path d="M0 -5 Q-3 -12 0 -16 Q3 -12 0 -5Z" transform="rotate(216 0 0)"/>
  <path d="M0 -5 Q-3 -12 0 -16 Q3 -12 0 -5Z" transform="rotate(288 0 0)"/>
</g>
<circle cx="180" cy="275" r="3"/>
<circle cx="220" cy="245" r="3"/>
<circle cx="270" cy="155" r="3"/>
<circle cx="295" cy="110" r="3"/>
<circle cx="165" cy="312" r="3"/>
</g></svg>
