<?xml version="1.0" encoding="UTF-8"?>
<svg xmlns="http://www.w3.org/2000/svg" width="400" height="400" viewBox="0 0 400 400">
<g stroke="#1a1a1a" stroke-width="1.5" fill="none" stroke-linecap="round" stroke-linejoin="round">
<path d="M200 400 Q196 360 200 310"/>
<path d="M200 360 Q172 340 155 330 Q158 318 172 322"/>
<path d="M200 340 Q228 320 245 310 Q242 298 228 302"/>
<path d="M178 290 Q162 270 164 248 Q178 240 184 256 Q162 244 172 230 Q186 232 188 250 Q172 232 186 224 Q200 228 196 248 Q200 228 214 224 Q228 232 212 250 Q212 232 222 230 Q232 244 212 256 Q218 240 232 248 Q234 270 218 290Z"/>
<path d="M178 290 Q190 295 200 294 Q210 295 222 290"/>
<path d="M182 260 Q192 268 200 266 Q208 268 218 260"/>
<path d="M180 240 Q192 250 200 248 Q208 250 220 240"/>
</g></svg>
