<?xml version="1.0" encoding="UTF-8"?>
<svg xmlns="http://www.w3.org/2000/svg" width="400" height="400" viewBox="0 0 400 400">
<g stroke="#1a1a1a" stroke-width="1.5" fill="none" stroke-linecap="round" stroke-linejoin="round">
<path d="M160 400 Q158 365 162 330"/>
<path d="M200 400 Q198 360 200 318"/>
<path d="M240 400 Q242 365 238 330"/>
<path d="M162 330 Q148 308 150 288 Q162 280 166 296 Q150 282 162 270 Q172 274 170 292 Q172 274 184 270 Q192 278 182 298Z"/>
<path d="M200 318 Q184 296 186 276 Q198 268 202 284 Q186 270 198 258 Q210 262 208 280 Q210 262 222 258 Q234 270 218 284 Q218 268 230 276 Q232 296 216 318Z"/>
<path d="M238 330 Q224 308 226 288 Q238 280 242 296 Q226 282 238 270 Q248 274 246 292 Q248 274 260 270 Q268 278 258 298Z"/>
<path d="M162 330 Q178 345 180 370"/>
<path d="M238 330 Q222 345 220 370"/>
<path d="M160 370 Q180 355 200 358 Q220 355 240 370"/>
</g></svg>
